<svg id="Icons" height="512" viewBox="0 0 64 64" width="512" xmlns="http://www.w3.org/2000/svg"><g><path d="m52 49c0 1.66-1.34 3-3 3h-38c-1.66 0-3-1.34-3-3s1.34-3 3-3h2c-1.1 0-2 .9-2 2s.89 2 2 2h34c1.1 0 2-.9 2-2 0-1.093-.891-2-2-2h2c1.66 0 3 1.34 3 3z" fill="#00a0c8"/></g><g><path d="m43 43c0 1.66-1.34 3-3 3h-20c-1.66 0-3-1.34-3-3 0-.78.3-1.48.78-2.01.07.01.15.01.22.01h1.27c-.17.29-.27.64-.27 1 0 1.1.9 2 2 2h16c1.1 0 2-.9 2-2z" fill="#00a0c8"/></g><g><path d="m46 37c0 1.66-1.34 3-3 3h-26c-1.66 0-3-1.34-3-3s1.34-3 3-3h2c-1.1 0-2 .9-2 2 0 1.095.894 2 2 2h21c1.1 0 2-.9 2-2z" fill="#00a0c8"/></g><g><path d="m48 30c0 1.66-1.34 3-3 3h-30c-1.66 0-3-1.34-3-3s1.34-3 3-3h2c-1.1 0-2 .9-2 2 0 1.095.894 2 2 2h27c1.1 0 4-1 4-1z" fill="#00a0c8"/></g><g><path d="m48 53c0 1.66-1.34 3-3 3h-30c-1.66 0-3-1.34-3-3 .459.628 1.19 1 1.968 1h28.032c.74 0 1.38-.4 1.73-1z" fill="#00a0c8"/></g><g><path d="m56.62 35.38-6.62 6.62 3.31-6.62c.844-1.688 1.919-7.38-3.31-7.38l2.14-.53c4.666-1.178 7.808 4.582 4.48 7.91z" fill="#00a0c8"/></g><g><g><g><path d="m27.981 27.974c-3.597.353-6.461-3.007-5.914-6.427.259-1.616 1.325-3.164 2.641-4.135 1.565-1.155 1.9-3.432.759-5.023l-3.467-4.389c5.45 1.225 7.632 4.015 7.957 6.774.272 2.308-.755 4.744-2.533 6.158-1.425 1.133-1.822 3.276-.828 4.833l1.408 2.207z" fill="#c80a50"/></g></g><g><g><path d="m34.04 23.411c1.18.808 1.432 2.402.572 3.516l-2.615 3.073 2.058-.43c4.048-.956 5.413-6.126 2.031-8.623-2.509-1.852.037-4.111.797-4.948-3.855 0-5.324 2.415-4.794 4.667.244 1.032.906 2.029 1.951 2.745z" fill="#c80a50"/></g></g></g></svg>