<svg id="SvgjsSvg1028" width="288" height="288" xmlns="http://www.w3.org/2000/svg" version="1.1" xmlns:xlink="http://www.w3.org/1999/xlink" xmlns:svgjs="http://svgjs.com/svgjs"><defs id="SvgjsDefs1029"></defs><g id="SvgjsG1030"><svg xmlns="http://www.w3.org/2000/svg" xmlns:svgjs="http://svgjs.com/svgjs" xmlns:xlink="http://www.w3.org/1999/xlink" width="288" height="288"><svg xmlns="http://www.w3.org/2000/svg" width="288" height="288" enable-background="new 0 0 512 512" viewBox="0 0 512 512"><g fill="#ffffff" class="color000 svgShape colorfff" transform="translate(0 -35)"><path xmlns="http://www.w3.org/2000/svg" fill="#f66b0e" d="M331.756,277.251l-42.881,43.026c-17.389,17.45-47.985,17.826-65.75,0l-42.883-43.026L26.226,431.767    C31.959,434.418,38.28,436,45,436h422c6.72,0,13.039-1.58,18.77-4.232L331.756,277.251z" class="color68c1d0 svgShape colororange" data-original="#000000"></path><path xmlns="http://www.w3.org/2000/svg" fill="#f66b0e" d="M467 76H45c-6.72 0-13.041 1.582-18.772 4.233l164.577 165.123c.011.011.024.013.035.024.011.011.013.026.013.026l53.513 53.69c5.684 5.684 17.586 5.684 23.27 0l53.502-53.681c0 0 .013-.024.024-.035 0 0 .024-.013.035-.024L485.77 80.232C480.039 77.58 473.72 76 467 76zM4.786 101.212C1.82 107.21 0 113.868 0 121v270c0 7.132 1.818 13.79 4.785 19.788l154.283-154.783L4.786 101.212zM507.214 101.21L352.933 256.005 507.214 410.79C510.18 404.792 512 398.134 512 391V121C512 113.866 510.18 107.208 507.214 101.21z" class="color68c1d0 svgShape colororange" data-original="#000000"></path></g></svg></svg></g></svg>