<svg clip-rule="evenodd" fill-rule="evenodd" height="512" stroke-linejoin="round" stroke-miterlimit="2" viewBox="0 0 24 24" width="512" xmlns="http://www.w3.org/2000/svg"><g transform="translate(-216.731 -90.903)"><path d="m227.731 92.903h-5c-2.209 0-4 1.791-4 4v12c0 2.209 1.791 4 4 4h12c2.209 0 4-1.791 4-4 0-2.271 0-5 0-5 0-.552-.448-1-1-1s-1 .448-1 1v5c0 1.104-.896 2-2 2-3.33 0-8.671 0-12 0-1.105 0-2-.896-2-2 0-3.33 0-8.671 0-12 0-1.105.895-2 2-2h5c.552 0 1-.448 1-1s-.448-1-1-1zm7.586 2h-3.586c-.552 0-1-.448-1-1s.448-1 1-1h6c.552 0 1 .448 1 1v6c0 .552-.448 1-1 1s-1-.448-1-1v-3.586l-7.293 7.293c-.39.39-1.024.39-1.414 0-.391-.39-.391-1.024 0-1.414z" fill="#68c1d0"/></g></svg>
